<?xml version="1.0" encoding="utf-8"?>
<!-- Uploaded to: SVG Repo, www.svgrepo.com, Generator: SVG Repo Mixer Tools -->
<svg width="800px" height="800px" viewBox="0 0 1024 1024" class="icon"  version="1.1" xmlns="http://www.w3.org/2000/svg"><path d="M136.887325 610.91449a396.110516 148.482826 0 1 0 792.221031 0 396.110516 148.482826 0 1 0-792.221031 0Z" fill="#EEB822" /><path d="M287.211096 529.646664s236.51751 153.911466 472.011135-17.871919V386.587358s-23.044587-190.152911-213.320364-190.152911c0 0-258.690771-9.187323-258.690771 196.020798v137.191419z" fill="#5698D2" /><path d="M722.829251 768.992145c0 16.843937-94.873214 61.677828-194.569952 61.677828-156.995409 0-180.53658-35.930184-180.53658-52.774121 0-16.842914 80.828579-8.218728 180.53658-8.218728 99.696738 0 194.569952-17.528917 194.569952-0.684979z" fill="#EADF37" /><path d="M628.191531 220.875614s52.977874 107.909322 43.865295 333.222455c35.009711-0.294879 78.869887-38.17966 78.869886-38.17966s46.473131-216.783144-122.735181-295.042795z" fill="#2E7EBE" /><path d="M509.820148 608.81962h-0.032764c-153.215224 0-260.039228-71.699618-264.45115-74.826563-3.624554-2.569952-7.271634-4.988369-7.271633-9.433056V399.383877c0-0.422865 1.516374-0.845729 1.553234-1.263474 0.213992-2.301694 24.830243-229.916521 269.330987-229.916522 244.517126 0 267.381509 231.255763 267.590382 233.589198 0.03686 0.417745-0.934807 0.824228-0.934808 1.241973v120.614715c0 4.765162-1.111939 7.441599-5.17574 9.935783-83.280785 51.077543-170.062233 75.23407-260.608508 75.23407z m-244.110643-91.669477c27.644904 14.760331 119.399363 65.048459 244.077879 65.048459h0.021501c83.072936 0 161.359208-20.498184 238.150608-66.280193V403.709793c0-14.428592-24.151407-208.09343-239.746845-208.09343-92.378006 0-161.631561 34.436335-204.581503 102.352696-30.453421 48.15947-32.802214 96.468428-37.92164 102.127442v117.053642z" fill="#221714" /><path d="M510.606492 789.550738c-250.043035 0-445.908202-77.064777-445.908202-175.439678 0-56.923929 64.108532-107.920585 176.355032-140.692083l0.058361-75.298574c0.213992-2.301694 24.082807-229.916521 268.583551-229.916522 244.522246 0 267.007791 231.255763 267.216664 233.589198l-1.308526 1.241973v69.869935c115.699042 32.756139 179.548531 83.940167 179.548531 141.207096 0.001024 98.373878-194.502376 175.438655-444.545411 175.438655z m-244.896987-389.455261v94.12885l-8.686644 2.768586C154.451053 525.235766 91.421697 570.112659 91.421697 614.112083c0 71.486649 168.508999 148.027197 418.839746 148.027197 250.33689 0 418.672853-76.540547 418.672852-148.027197 0-44.299422-65.801014-89.358568-169.475546-117.595277l-11.50028-2.752204v-90.054809c0-14.428592-24.151407-208.09343-239.746845-208.09343-92.378006 0-161.631561 34.436335-204.581503 102.352696-30.451373 48.158446-32.80119 96.467404-37.920616 102.126418z" fill="#221714" /><path d="M509.697282 855.341514c-109.938663 0-226.762955-31.491641-227.518582-89.887917-136.473675-31.229526-217.479386-87.37735-217.479386-151.341514 0-56.923929 64.108532-107.920585 176.355032-140.692082l0.058361-75.298575c0.213992-2.301694 24.082807-229.916521 268.583551-229.916521 244.522246 0 267.007791 231.255763 267.216664 233.589198l-1.308526 1.241973v69.869935c115.699042 32.756139 179.548531 83.940167 179.548531 141.207096 0 64.312285-81.00264 120.625978-218.627162 151.764379-1.32286 58.12085-117.158078 89.464028-226.828483 89.464028zM265.709505 400.095477v94.12885l-8.686644 2.768586C154.451053 525.235766 91.421697 570.112659 91.421697 614.112083c0 50.472427 82.181132 100.452365 208.829603 127.334475l15.596845 3.271314-5.29963 14.819716c-0.706481 1.938215-1.006479 3.689059-1.00648 5.343657 0 26.331259 76.149423 63.048811 200.132721 63.048811 123.982274 0 200.121458-36.717552 200.121459-63.048811 0-1.573712-0.316381-3.254931-0.968596-5.134785l-5.153215-14.72859 15.27637-3.212952C846.616987 714.991409 929.107332 664.867103 929.107332 614.11106c0-44.299422-65.887021-89.358568-169.561553-117.595278l-11.586286-2.752204v-90.054809c0-14.428592-24.151407-208.09343-239.746845-208.09343-92.378006 0-161.631561 34.436335-204.581503 102.352697-30.452397 48.15947-32.802214 96.468428-37.92164 102.127441z" fill="#221714" /><path d="M778.339194 501.505175s148.461324 141.233718 89.76505 187.684324c58.262147-24.821028 74.70984-53.213368 61.004112-93.83909-13.706753-40.630841-97.769786-84.925144-150.769162-93.845234z" fill="#CF991A" /><path d="M374.453293 296.125042a8.224871 8.224871 0 0 1-6.983922-12.552834c26.063001-42.104212 57.413346-40.451661 58.733134-40.358488a8.224871 8.224871 0 0 1 7.637161 8.77265c-0.310237 4.496904-4.138544 7.872654-8.673333 7.643303-1.135489-0.059385-23.295439-0.382933-43.712736 32.600509a8.215656 8.215656 0 0 1-7.000304 3.89486zM363.503864 347.298831a8.219751 8.219751 0 0 1-6.850817-3.659367c-9.96138-14.937463-0.767914-32.113139-0.371671-32.836002a8.223847 8.223847 0 0 1 14.453166 7.851153c-0.149487 0.288736-4.74878 9.331691-0.396244 15.855888a8.228966 8.228966 0 0 1-2.278145 11.407106 8.201321 8.201321 0 0 1-4.556289 1.381222z" fill="#FFFFFF" /></svg>